# xmcd
#
# Track frame offsets:
#	150
#	40214
#	72109
#	97202
#	127862
#	164309
#	196855
#	217859
#
# Disc length: 3770 seconds
#
# Revision: 1
# Processed by: cddbd v1.4PL0 Copyright (c) Steve Scherf et al.
# Submitted via: EasyCDDAExtractor 5.0.6
#
DISCID=670eb808
DTITLE=Jude Bowerman - Live
DYEAR=1999
DGENRE=Blues
TTITLE0=The Fever
TTITLE1=You Brought The Sunshine Inside
TTITLE2=Right As Rain
TTITLE3=Flashlight And Cold Sweat
TTITLE4=Sex Machine
TTITLE5=Uff Da
TTITLE6=Cold Shot
TTITLE7=Voodoo Child
EXTD=
EXTT0=
EXTT1=
EXTT2=
EXTT3=
EXTT4=
EXTT5=
EXTT6=
EXTT7=
PLAYORDER=
